<?xml version="1.0" standalone="no"?><!DOCTYPE svg PUBLIC "-//W3C//DTD SVG 1.1//EN" "http://www.w3.org/Graphics/SVG/1.1/DTD/svg11.dtd"><svg t="1720597688576" class="icon" viewBox="0 0 1024 1024" version="1.1" xmlns="http://www.w3.org/2000/svg" p-id="1209" width="48" height="48" xmlns:xlink="http://www.w3.org/1999/xlink"><path d="M245.354667 369.354667L170.666667 469.333333l74.688 99.978667 25.28 141.386667 141.386666 25.28L512 810.666667l99.978667-74.688 141.376-25.28 25.28-141.386667L853.333333 469.333333l-74.688-99.978666-25.28-141.376-141.386666-25.28L512 128l-99.978667 74.688-141.386666 25.28-25.28 141.386667z" fill="#FFBB0D" p-id="1210"></path><path d="M150.4 484.469333a25.28 25.28 0 0 1 0-30.261333l71.114667-95.189333 24.224-135.488a25.28 25.28 0 0 1 20.437333-20.437334l135.498667-24.234666 95.189333-71.114667a25.28 25.28 0 0 1 30.261333 0l95.178667 71.114667 135.498667 24.224a25.28 25.28 0 0 1 20.437333 20.448l24.234667 135.488 71.104 95.189333a25.28 25.28 0 0 1 0 30.261333l-71.104 95.178667-24.234667 135.498667a25.28 25.28 0 0 1-20.437333 20.437333L622.293333 759.818667l-95.178666 71.104a25.28 25.28 0 0 1-30.261334 0l-95.189333-71.104-135.488-24.234667a25.28 25.28 0 0 1-20.437333-20.437333l-24.234667-135.498667L150.4 484.48z m94.944 84.842667l25.28 141.386667 141.397333 25.28L511.989333 810.666667l99.978667-74.688 141.386667-25.28 25.28-141.386667L853.322667 469.333333l-74.688-99.968-25.28-141.386666-141.386667-25.28L511.989333 128l-99.968 74.698667-141.386666 25.28-25.28 141.386666L170.645333 469.333333l74.688 99.978667z" fill="#E89B05" p-id="1211"></path><path d="M733.248 233.408a12.64 12.64 0 0 1 14.677333 10.218667l22.88 127.968 67.370667 90.176c3.349333 4.48 3.349333 10.645333 0 15.125333l-67.370667 90.176-22.88 127.968c-0.938667 5.205333-5.013333 9.28-10.218666 10.218667l-127.968 22.88-90.176 67.370666a12.64 12.64 0 1 1-15.136-20.256l92.576-69.152c1.568-1.173333 3.402667-1.973333 5.333333-2.325333l122.24-21.856 21.866667-122.24c0.352-1.941333 1.141333-3.765333 2.314666-5.344l63.509334-85.013333-63.509334-84.992a12.64 12.64 0 0 1-2.314666-5.333334l-23.413334-130.922666a12.64 12.64 0 0 1 10.218667-14.666667z" fill="#EEAD04" p-id="1212"></path><path d="M522.112 145.728a12.64 12.64 0 0 1-2.56 17.685333l-92.565333 69.162667c-1.578667 1.173333-3.413333 1.973333-5.344 2.314667l-122.24 21.866666-21.866667 122.24a12.629333 12.629333 0 0 1-2.314667 5.333334l-69.162666 92.576a12.64 12.64 0 1 1-20.256-15.136l67.370666-90.165334 22.890667-127.978666c0.928-5.205333 5.013333-9.28 10.208-10.208l127.968-22.890667 90.176-67.370667a12.64 12.64 0 0 1 17.696 2.56z" fill="#FFD15C" p-id="1213"></path><path d="M314.474667 395.285333l-55.328 74.058667 55.328 74.048 18.730666 104.736 104.725334 18.72 74.058666 55.328 74.048-55.317333 104.736-18.730667 18.72-104.736 55.328-74.048-55.317333-74.058667-18.730667-104.725333-104.736-18.730667L512 216.501333l-74.058667 55.328-104.725333 18.730667-18.730667 104.725333z" fill="#FFDD28" p-id="1214"></path><path d="M238.901333 484.469333a25.28 25.28 0 0 1 0-30.272l51.744-69.258666 17.674667-98.837334a25.28 25.28 0 0 1 20.437333-20.437333l98.848-17.685333 69.258667-51.733334a25.28 25.28 0 0 1 30.261333 0l69.269334 51.733334 98.837333 17.674666a25.28 25.28 0 0 1 20.437333 20.448l17.674667 98.837334 51.754667 69.258666a25.28 25.28 0 0 1 0 30.261334l-51.754667 69.269333-17.674667 98.837333a25.28 25.28 0 0 1-20.437333 20.437334l-98.837333 17.674666-69.258667 51.754667a25.28 25.28 0 0 1-30.272 0l-69.258667-51.754667-98.848-17.674666a25.28 25.28 0 0 1-20.437333-20.437334l-17.674667-98.837333-51.733333-69.258667z m75.584 58.922667l18.730667 104.725333 104.725333 18.730667L512 722.176l74.058667-55.328 104.725333-18.730667 18.730667-104.736L764.842667 469.333333l-55.328-74.058666-18.730667-104.725334-104.725333-18.730666L512 216.490667l-74.058667 55.328-104.725333 18.730666-18.730667 104.725334L259.157333 469.333333l55.328 74.058667z" fill="#E89B05" p-id="1215"></path><path d="M670.677333 295.978667a12.64 12.64 0 0 1 14.666667 10.218666l16.330667 91.306667 48 64.256c3.36 4.490667 3.36 10.645333 0 15.146667l-48 64.245333-16.32 91.306667c-0.938667 5.216-5.013333 9.290667-10.229334 10.218666l-91.306666 16.330667-64.256 48a12.64 12.64 0 0 1-15.136-20.245333l66.656-49.802667c1.568-1.173333 3.402667-1.962667 5.333333-2.314667l85.589333-15.306666 15.306667-85.578667c0.352-1.941333 1.141333-3.765333 2.314667-5.344l44.149333-59.093333-44.149333-59.072a12.64 12.64 0 0 1-2.314667-5.344l-16.853333-94.261334a12.64 12.64 0 0 1 10.218666-14.666666z" fill="#ECC704" p-id="1216"></path><path d="M522.122667 234.208a12.64 12.64 0 0 1-2.56 17.706667l-66.656 49.781333c-1.578667 1.173333-3.413333 1.973333-5.333334 2.325333l-85.6 15.296-15.296 85.589334a12.629333 12.629333 0 0 1-2.325333 5.344l-49.792 66.645333a12.64 12.64 0 1 1-20.256-15.125333l48-64.256 16.330667-91.306667c0.938667-5.216 5.013333-9.290667 10.218666-10.229333l91.306667-16.32 64.266667-48a12.64 12.64 0 0 1 17.696 2.56z" fill="#FFEF9C" p-id="1217"></path><path d="M125.610667 805.898667l-32.565334-65.130667A10.666667 10.666667 0 0 1 102.592 725.333333H245.333333a10.666667 10.666667 0 0 1 10.666667 10.666667v149.333333a10.666667 10.666667 0 0 1-10.666667 10.666667H102.592a10.666667 10.666667 0 0 1-9.546667-15.434667l32.565334-65.130666a10.666667 10.666667 0 0 0 0-9.536zM898.378667 805.898667l32.565333-65.130667A10.666667 10.666667 0 0 0 921.408 725.333333H778.666667a10.666667 10.666667 0 0 0-10.666667 10.666667v149.333333a10.666667 10.666667 0 0 0 10.666667 10.666667h142.741333a10.666667 10.666667 0 0 0 9.536-15.434667l-32.565333-65.130666a10.666667 10.666667 0 0 1 0-9.536z" fill="#E16104" p-id="1218"></path><path d="M104.16 810.666667l-30.186667-60.352C63.349333 729.034667 78.826667 704 102.613333 704H245.333333a32 32 0 0 1 32 32v149.333333a32 32 0 0 1-32 32H102.602667c-23.786667 0-39.253333-25.034667-28.618667-46.314666L104.16 810.666667z m2.378667 4.757333v0.010667l9.546666-4.768-9.546666 4.768zM919.861333 810.666667l30.186667-60.352c10.634667-21.28-4.842667-46.314667-28.629333-46.314667H778.666667a32 32 0 0 0-32 32v149.333333a32 32 0 0 0 32 32h142.741333c23.786667 0 39.253333-25.034667 28.618667-46.314666L919.850667 810.666667z m11.093334-69.898667l-32.554667 65.130667a10.666667 10.666667 0 0 0 0 9.536l32.554667 65.130666A10.666667 10.666667 0 0 1 921.418667 896H778.666667a10.666667 10.666667 0 0 1-10.666667-10.666667V736a10.666667 10.666667 0 0 1 10.666667-10.666667h142.741333a10.666667 10.666667 0 0 1 9.536 15.434667z m-837.898667 0l32.565333 65.130667a10.666667 10.666667 0 0 1 0 9.536l-32.565333 65.130666A10.666667 10.666667 0 0 0 102.613333 896H245.333333a10.666667 10.666667 0 0 0 10.666667-10.666667V736a10.666667 10.666667 0 0 0-10.666667-10.666667H102.602667a10.666667 10.666667 0 0 0-9.546667 15.434667z" fill="#BD4501" p-id="1219"></path><path d="M108.309333 734.976a10.666667 10.666667 0 0 1 9.024-4.970667h45.333334a10.666667 10.666667 0 1 1 0 21.333334h-28.405334l22.026667 46.058666a10.666667 10.666667 0 1 1-19.242667 9.205334l-29.333333-61.333334a10.666667 10.666667 0 0 1 0.597333-10.293333z" fill="#FA7616" p-id="1220"></path><path d="M810.666667 842.666667V693.333333a10.666667 10.666667 0 0 0-10.666667-10.666666H224a10.666667 10.666667 0 0 0-10.666667 10.666666v149.333334a10.666667 10.666667 0 0 0 10.666667 10.666666h576a10.666667 10.666667 0 0 0 10.666667-10.666666z" fill="#FF8B04" p-id="1221"></path><path d="M832 693.333333v149.333334a32 32 0 0 1-32 32H224a32 32 0 0 1-32-32V693.333333a32 32 0 0 1 32-32h576a32 32 0 0 1 32 32z m-21.333333 0v149.333334a10.666667 10.666667 0 0 1-10.666667 10.666666H224a10.666667 10.666667 0 0 1-10.666667-10.666666V693.333333a10.666667 10.666667 0 0 1 10.666667-10.666666h576a10.666667 10.666667 0 0 1 10.666667 10.666666z" fill="#BD4501" p-id="1222"></path><path d="M220 698.005333a10.666667 10.666667 0 0 1 10.666667-10.666666h400a10.666667 10.666667 0 1 1 0 21.333333h-389.333334v74.666667a10.666667 10.666667 0 1 1-21.333333 0v-85.333334z" fill="#FFB053" p-id="1223"></path><path d="M781.184 772.053333a10.805333 10.805333 0 0 1-10.933333-10.666666c0-5.898667 4.906667-10.677333 10.933333-10.677334 6.048 0 10.944 4.778667 10.944 10.666667 0 5.898667-4.906667 10.666667-10.944 10.666667zM739.584 767.786667c-7.509333 0-13.6-5.941333-13.6-13.28 0-7.328 6.08-13.269333 13.6-13.269334 7.509333 0 13.6 5.941333 13.6 13.28 0 7.328-6.08 13.269333-13.6 13.269334zM758.112 798.122667a6.72 6.72 0 0 1-6.794667-6.634667 6.72 6.72 0 0 1 6.794667-6.634667 6.72 6.72 0 0 1 6.805333 6.634667 6.72 6.72 0 0 1-6.805333 6.634667zM746.389333 727.936a6.72 6.72 0 0 1-6.805333-6.634667 6.72 6.72 0 0 1 6.805333-6.634666 6.72 6.72 0 0 1 6.794667 6.634666 6.72 6.72 0 0 1-6.794667 6.634667zM710.634667 791.488a6.72 6.72 0 0 1-6.805334-6.634667 6.72 6.72 0 0 1 6.805334-6.634666 6.72 6.72 0 0 1 6.805333 6.634666 6.72 6.72 0 0 1-6.805333 6.634667zM703.84 757.344a6.72 6.72 0 0 1-6.794667-6.634667 6.72 6.72 0 0 1 6.794667-6.634666 6.72 6.72 0 0 1 6.805333 6.634666 6.72 6.72 0 0 1-6.805333 6.634667zM657.472 834.325333a6.72 6.72 0 0 1-6.805333-6.634666 6.72 6.72 0 0 1 6.805333-6.634667 6.72 6.72 0 0 1 6.794667 6.634667 6.72 6.72 0 0 1-6.794667 6.634666zM792.8 808.992a6.72 6.72 0 0 1-6.805333-6.634667 6.72 6.72 0 0 1 6.805333-6.634666 6.72 6.72 0 0 1 6.805333 6.634666 6.72 6.72 0 0 1-6.805333 6.634667zM728.512 823.530667a10.933333 10.933333 0 0 1-11.072-10.805334c0-5.962667 4.96-10.794667 11.072-10.794666s11.072 4.832 11.072 10.794666c0 5.973333-4.96 10.805333-11.072 10.805334zM776 834.325333a10.933333 10.933333 0 0 1-11.072-10.794666c0-5.973333 4.949333-10.805333 11.061333-10.805334 6.122667 0 11.072 4.842667 11.072 10.805334 0 5.962667-4.96 10.794667-11.072 10.794666zM679.157333 813.088a10.933333 10.933333 0 0 1-11.072-10.794667c0-5.973333 4.96-10.805333 11.072-10.805333s11.072 4.842667 11.072 10.805333c0 5.962667-4.96 10.794667-11.072 10.794667zM697.034667 837.6a6.72 6.72 0 0 1-6.805334-6.634667 6.72 6.72 0 0 1 6.805334-6.634666 6.72 6.72 0 0 1 6.794666 6.634666 6.72 6.72 0 0 1-6.794666 6.634667z" fill="#E77D02" p-id="1224"></path><path d="M539.349333 560.992h-38.805333V411.413333l-46.314667 14.368V394.24l80.96-29.002667h4.16v195.754667z" fill="#FFEF9C" p-id="1225"></path><path d="M562.261333 560.992a22.912 22.912 0 0 1-22.912 22.912h-38.805333a22.912 22.912 0 0 1-22.912-22.912V442.517333l-16.618667 5.152a22.912 22.912 0 0 1-29.706666-21.877333V394.24c0-9.674667 6.08-18.314667 15.189333-21.578667l80.96-28.992c2.485333-0.896 5.098667-1.344 7.722667-1.344h4.16c12.661333 0 22.922667 10.250667 22.922666 22.912v195.754667zM500.544 411.413333v149.568h38.805333V365.226667h-4.16l-80.96 29.002666v31.552l46.314667-14.368z" fill="#E89B05" p-id="1226"></path></svg>