<?xml version="1.0" standalone="no"?><!DOCTYPE svg PUBLIC "-//W3C//DTD SVG 1.1//EN" "http://www.w3.org/Graphics/SVG/1.1/DTD/svg11.dtd"><svg t="1720597793846" class="icon" viewBox="0 0 1024 1024" version="1.1" xmlns="http://www.w3.org/2000/svg" p-id="1428" xmlns:xlink="http://www.w3.org/1999/xlink" width="48" height="48"><path d="M245.354667 369.354667L170.666667 469.333333l74.688 99.978667 25.28 141.386667 141.386666 25.28L512 810.666667l99.978667-74.688 141.376-25.28 25.28-141.386667L853.333333 469.333333l-74.688-99.978666-25.28-141.376-141.386666-25.28L512 128l-99.978667 74.688-141.386666 25.28-25.28 141.386667z" fill="#DCA16A" p-id="1429"></path><path d="M150.4 484.469333a25.28 25.28 0 0 1 0-30.272l71.114667-95.178666 24.224-135.498667a25.28 25.28 0 0 1 20.437333-20.437333l135.498667-24.234667 95.189333-71.104a25.28 25.28 0 0 1 30.261333 0l95.178667 71.104 135.498667 24.234667a25.28 25.28 0 0 1 20.437333 20.437333l24.234667 135.498667 71.104 95.178666a25.28 25.28 0 0 1 0 30.261334l-71.104 95.189333-24.234667 135.498667a25.28 25.28 0 0 1-20.437333 20.437333L622.293333 759.808 527.125333 830.933333a25.28 25.28 0 0 1-30.261333 0l-95.189333-71.114666-135.488-24.224a25.28 25.28 0 0 1-20.437334-20.437334l-24.234666-135.498666-71.114667-95.178667z m94.944 84.832l25.28 141.386667 141.397333 25.28L511.989333 810.666667l99.978667-74.688 141.386667-25.28 25.28-141.397334L853.322667 469.333333l-74.688-99.978666-25.28-141.386667-141.386667-25.28L511.989333 128l-99.968 74.688-141.386666 25.28-25.28 141.386667L170.645333 469.333333l74.688 99.968z" fill="#C38144" p-id="1430"></path><path d="M733.248 233.408a12.64 12.64 0 0 1 14.677333 10.218667l22.88 127.968 67.370667 90.176c3.349333 4.48 3.349333 10.645333 0 15.125333l-67.370667 90.176-22.88 127.968c-0.938667 5.205333-5.013333 9.28-10.218666 10.218667l-127.968 22.88-90.176 67.370666a12.64 12.64 0 1 1-15.136-20.256l92.576-69.152c1.568-1.173333 3.402667-1.973333 5.333333-2.325333l122.24-21.856 21.866667-122.24c0.352-1.941333 1.141333-3.765333 2.314666-5.344l63.509334-85.013333-63.509334-84.992a12.64 12.64 0 0 1-2.314666-5.333334l-23.413334-130.922666a12.64 12.64 0 0 1 10.218667-14.666667z" fill="#CF945D" p-id="1431"></path><path d="M522.112 145.717333a12.64 12.64 0 0 1-2.56 17.696l-92.565333 69.152c-1.578667 1.173333-3.413333 1.973333-5.344 2.325334l-122.24 21.856-21.866667 122.24a12.629333 12.629333 0 0 1-2.314667 5.344l-69.162666 92.565333a12.64 12.64 0 1 1-20.256-15.125333l67.370666-90.176 22.890667-127.968c0.928-5.205333 5.013333-9.28 10.208-10.218667l127.968-22.88 90.176-67.370667a12.64 12.64 0 0 1 17.696 2.56z" fill="#F0B57F" p-id="1432"></path><path d="M314.474667 395.274667L259.146667 469.333333l55.328 74.048 18.730666 104.736 104.725334 18.72 74.058666 55.328 74.048-55.328 104.736-18.72 18.72-104.736L764.832 469.333333l-55.317333-74.058666-18.730667-104.725334-104.736-18.730666L512 216.490667l-74.058667 55.328-104.725333 18.730666-18.730667 104.725334z" fill="#F7BA82" p-id="1433"></path><path d="M238.901333 484.469333a25.28 25.28 0 0 1 0-30.272l51.744-69.258666 17.674667-98.837334a25.28 25.28 0 0 1 20.437333-20.437333l98.848-17.685333 69.258667-51.733334a25.28 25.28 0 0 1 30.261333 0l69.269334 51.733334 98.837333 17.674666a25.28 25.28 0 0 1 20.437333 20.448l17.674667 98.837334 51.754667 69.258666a25.28 25.28 0 0 1 0 30.261334l-51.754667 69.269333-17.674667 98.837333a25.28 25.28 0 0 1-20.437333 20.437334l-98.837333 17.674666-69.258667 51.754667a25.28 25.28 0 0 1-30.272 0l-69.258667-51.754667-98.848-17.674666a25.28 25.28 0 0 1-20.437333-20.437334l-17.674667-98.837333-51.733333-69.258667z m75.584 58.922667l18.730667 104.725333 104.725333 18.730667L512 722.176l74.058667-55.328 104.725333-18.730667 18.730667-104.736L764.842667 469.333333l-55.328-74.058666-18.730667-104.725334-104.725333-18.730666L512 216.490667l-74.058667 55.328-104.725333 18.730666-18.730667 104.725334L259.157333 469.333333l55.328 74.058667z" fill="#C28044" p-id="1434"></path><path d="M670.677333 295.978667a12.64 12.64 0 0 1 14.666667 10.218666l16.330667 91.306667 48 64.256c3.36 4.490667 3.36 10.645333 0 15.146667l-48 64.245333-16.32 91.306667c-0.938667 5.216-5.013333 9.290667-10.229334 10.218666l-91.306666 16.330667-64.256 48a12.64 12.64 0 0 1-15.136-20.245333l66.656-49.802667c1.568-1.173333 3.402667-1.962667 5.333333-2.314667l85.589333-15.306666 15.306667-85.578667c0.352-1.941333 1.141333-3.765333 2.314667-5.344l44.149333-59.093333-44.149333-59.072a12.64 12.64 0 0 1-2.314667-5.344l-16.853333-94.261334a12.64 12.64 0 0 1 10.218666-14.666666z" fill="#E5A66C" p-id="1435"></path><path d="M522.122667 234.208a12.64 12.64 0 0 1-2.56 17.696l-66.656 49.792c-1.578667 1.173333-3.413333 1.973333-5.333334 2.314667l-85.6 15.306666-15.296 85.589334a12.618667 12.618667 0 0 1-2.325333 5.333333l-49.792 66.656a12.64 12.64 0 1 1-20.256-15.136l48-64.245333 16.330667-91.317334c0.938667-5.205333 5.013333-9.28 10.218666-10.218666l91.306667-16.32 64.266667-48.010667a12.64 12.64 0 0 1 17.696 2.56z" fill="#FFD5AE" p-id="1436"></path><path d="M125.610667 805.898667l-32.565334-65.130667A10.666667 10.666667 0 0 1 102.592 725.333333H245.333333a10.666667 10.666667 0 0 1 10.666667 10.666667v149.333333a10.666667 10.666667 0 0 1-10.666667 10.666667H102.592a10.666667 10.666667 0 0 1-9.546667-15.434667l32.565334-65.130666a10.666667 10.666667 0 0 0 0-9.536zM898.378667 805.898667l32.565333-65.130667A10.666667 10.666667 0 0 0 921.408 725.333333H778.666667a10.666667 10.666667 0 0 0-10.666667 10.666667v149.333333a10.666667 10.666667 0 0 0 10.666667 10.666667h142.741333a10.666667 10.666667 0 0 0 9.536-15.434667l-32.565333-65.130666a10.666667 10.666667 0 0 1 0-9.536z" fill="#C52229" p-id="1437"></path><path d="M104.16 810.666667l-30.186667-60.352C63.349333 729.034667 78.826667 704 102.613333 704H245.333333a32 32 0 0 1 32 32v149.333333a32 32 0 0 1-32 32H102.602667c-23.786667 0-39.253333-25.034667-28.618667-46.314666L104.16 810.666667z m2.378667 4.757333v0.010667l9.546666-4.768-9.546666 4.768zM919.861333 810.666667l30.186667-60.352c10.634667-21.28-4.842667-46.314667-28.629333-46.314667H778.666667a32 32 0 0 0-32 32v149.333333a32 32 0 0 0 32 32h142.741333c23.786667 0 39.253333-25.034667 28.618667-46.314666L919.850667 810.666667z m11.093334-69.898667l-32.554667 65.130667a10.666667 10.666667 0 0 0 0 9.536l32.554667 65.130666A10.666667 10.666667 0 0 1 921.418667 896H778.666667a10.666667 10.666667 0 0 1-10.666667-10.666667V736a10.666667 10.666667 0 0 1 10.666667-10.666667h142.741333a10.666667 10.666667 0 0 1 9.536 15.434667z m-837.898667 0l32.565333 65.130667a10.666667 10.666667 0 0 1 0 9.536l-32.565333 65.130666A10.666667 10.666667 0 0 0 102.613333 896H245.333333a10.666667 10.666667 0 0 0 10.666667-10.666667V736a10.666667 10.666667 0 0 0-10.666667-10.666667H102.602667a10.666667 10.666667 0 0 0-9.546667 15.434667z" fill="#9B0F15" p-id="1438"></path><path d="M108.309333 734.976a10.666667 10.666667 0 0 1 9.024-4.970667h45.333334a10.666667 10.666667 0 1 1 0 21.333334h-28.405334l22.026667 46.058666a10.666667 10.666667 0 1 1-19.242667 9.205334l-29.333333-61.333334a10.666667 10.666667 0 0 1 0.597333-10.293333z" fill="#DF3840" p-id="1439"></path><path d="M810.666667 842.666667V693.333333a10.666667 10.666667 0 0 0-10.666667-10.666666H224a10.666667 10.666667 0 0 0-10.666667 10.666666v149.333334a10.666667 10.666667 0 0 0 10.666667 10.666666h576a10.666667 10.666667 0 0 0 10.666667-10.666666z" fill="#F1333B" p-id="1440"></path><path d="M832 693.333333v149.333334a32 32 0 0 1-32 32H224a32 32 0 0 1-32-32V693.333333a32 32 0 0 1 32-32h576a32 32 0 0 1 32 32z m-21.333333 0v149.333334a10.666667 10.666667 0 0 1-10.666667 10.666666H224a10.666667 10.666667 0 0 1-10.666667-10.666666V693.333333a10.666667 10.666667 0 0 1 10.666667-10.666666h576a10.666667 10.666667 0 0 1 10.666667 10.666666z" fill="#9B0F15" p-id="1441"></path><path d="M781.184 772.053333a10.805333 10.805333 0 0 1-10.933333-10.666666c0-5.898667 4.906667-10.677333 10.933333-10.677334 6.048 0 10.944 4.778667 10.944 10.666667 0 5.898667-4.906667 10.666667-10.944 10.666667zM739.584 767.786667c-7.509333 0-13.6-5.941333-13.6-13.28 0-7.328 6.08-13.269333 13.6-13.269334 7.509333 0 13.6 5.941333 13.6 13.28 0 7.328-6.08 13.269333-13.6 13.269334zM758.112 798.122667a6.72 6.72 0 0 1-6.794667-6.634667 6.72 6.72 0 0 1 6.794667-6.634667 6.72 6.72 0 0 1 6.805333 6.634667 6.72 6.72 0 0 1-6.805333 6.634667zM746.389333 727.936a6.72 6.72 0 0 1-6.805333-6.634667 6.72 6.72 0 0 1 6.805333-6.634666 6.72 6.72 0 0 1 6.794667 6.634666 6.72 6.72 0 0 1-6.794667 6.634667zM710.634667 791.488a6.72 6.72 0 0 1-6.805334-6.634667 6.72 6.72 0 0 1 6.805334-6.634666 6.72 6.72 0 0 1 6.805333 6.634666 6.72 6.72 0 0 1-6.805333 6.634667zM703.84 757.344a6.72 6.72 0 0 1-6.794667-6.634667 6.72 6.72 0 0 1 6.794667-6.634666 6.72 6.72 0 0 1 6.805333 6.634666 6.72 6.72 0 0 1-6.805333 6.634667zM657.472 834.325333a6.72 6.72 0 0 1-6.805333-6.634666 6.72 6.72 0 0 1 6.805333-6.634667 6.72 6.72 0 0 1 6.794667 6.634667 6.72 6.72 0 0 1-6.794667 6.634666zM792.8 808.992a6.72 6.72 0 0 1-6.805333-6.634667 6.72 6.72 0 0 1 6.805333-6.634666 6.72 6.72 0 0 1 6.805333 6.634666 6.72 6.72 0 0 1-6.805333 6.634667zM728.512 823.530667a10.933333 10.933333 0 0 1-11.072-10.805334c0-5.962667 4.96-10.794667 11.072-10.794666s11.072 4.832 11.072 10.794666c0 5.973333-4.96 10.805333-11.072 10.805334zM776 834.325333a10.933333 10.933333 0 0 1-11.072-10.805333c0-5.962667 4.949333-10.794667 11.061333-10.794667 6.122667 0 11.072 4.832 11.072 10.794667 0 5.973333-4.96 10.805333-11.072 10.805333zM679.157333 813.088a10.933333 10.933333 0 0 1-11.072-10.794667c0-5.973333 4.96-10.805333 11.072-10.805333s11.072 4.842667 11.072 10.805333c0 5.962667-4.96 10.794667-11.072 10.794667zM697.034667 837.6a6.72 6.72 0 0 1-6.805334-6.634667 6.72 6.72 0 0 1 6.805334-6.634666 6.72 6.72 0 0 1 6.794666 6.634666 6.72 6.72 0 0 1-6.794666 6.634667z" fill="#DB1B24" p-id="1442"></path><path d="M220 698.005333a10.666667 10.666667 0 0 1 10.666667-10.666666h400a10.666667 10.666667 0 1 1 0 21.333333h-389.333334v74.666667a10.666667 10.666667 0 1 1-21.333333 0v-85.333334z" fill="#FE666D" p-id="1443"></path><path d="M484.565333 446.058667h20.682667c9.845333 0 17.141333-2.453333 21.877333-7.381334 4.746667-4.928 7.114667-11.456 7.114667-19.605333 0-7.872-2.368-14.005333-7.114667-18.389333-4.650667-4.384-11.093333-6.581333-19.328-6.581334-7.434667 0-13.653333 2.058667-18.666666 6.176-5.013333 4.021333-7.52 9.312-7.52 15.84h-38.794667c0-10.208 2.730667-19.328 8.181333-27.392 5.546667-8.138667 13.248-14.496 23.093334-19.061333 9.941333-4.565333 20.864-6.848 32.768-6.848 20.672 0 36.874667 4.970667 48.597333 14.901333 11.733333 9.845333 17.589333 23.456 17.589333 40.821334 0 8.949333-2.730667 17.173333-8.192 24.704a53.226667 53.226667 0 0 1-21.482666 17.312c11.008 3.946667 19.2 9.845333 24.576 17.728 5.450667 7.872 8.181333 17.173333 8.181333 27.925333 0 17.365333-6.346667 31.285333-19.061333 41.749333-12.618667 10.474667-29.354667 15.712-50.208 15.712-19.52 0-35.498667-5.152-47.936-15.434666-12.352-10.293333-18.528-23.893333-18.528-40.821334h38.805333c0 7.338667 2.730667 13.333333 8.192 17.994667 5.546667 4.650667 12.341333 6.976 20.405333 6.976 9.216 0 16.426667-2.410667 21.610667-7.253333 5.28-4.906667 7.925333-11.413333 7.925333-19.466667 0-19.509333-10.741333-29.258667-32.224-29.258667h-20.544v-30.346666z" fill="#FFD5AE" p-id="1444"></path><path d="M462.752 439.04h-19.946667a22.912 22.912 0 0 1-22.912-22.922667c0-14.549333 3.978667-28.202667 12.138667-40.245333l0.032-0.042667c8.106667-11.904 19.178667-20.821333 32.384-26.954666l0.074667-0.032c13.194667-6.058667 27.413333-8.938667 42.325333-8.938667 24.202667 0 46.282667 5.834667 63.381333 20.309333 17.610667 14.805333 25.728 35.221333 25.728 58.325334 0 13.973333-4.373333 26.890667-12.565333 38.165333a75.733333 75.733333 0 0 1-1.621333 2.154667c1.802667 2.016 3.488 4.16 5.045333 6.442666 8.405333 12.149333 12.224 26.112 12.224 40.906667 0 23.765333-9.077333 44.32-27.370667 59.413333-17.738667 14.709333-40.117333 20.96-64.821333 20.96-23.68 0-45.173333-6.336-62.538667-20.693333l-0.053333-0.053333c-17.888-14.901333-26.773333-35.104-26.773333-58.421334 0-12.650667 10.250667-22.912 22.912-22.912h22.72a22.869333 22.869333 0 0 1-1.461334-8.106666v-30.336c0-2.453333 0.384-4.810667 1.098667-7.018667z m37.877333 60.266667a22.88 22.88 0 0 1 1.493334 8.554666 9.322667 9.322667 0 0 1 0.064 0.053334c0.96 0.778667 2.378667 1.557333 5.6 1.557333 2.645333 0 4.224-0.341333 5.034666-0.618667a2.602667 2.602667 0 0 0 0.96-0.469333m-13.152-9.066667h4.48c5.696 0 8.010667 0.981333 8.64 1.322667a2.282667 2.282667 0 0 1 0.053334 0.117333c0.213333 0.586667 0.608 2.08 0.608 4.906667a6.293333 6.293333 0 0 1-0.362667 2.421333 1.994667 1.994667 0 0 1-0.266667 0.288m43.285334 39.594667c12.704-10.474667 19.061333-24.394667 19.061333-41.76 0-10.741333-2.730667-20.053333-8.192-27.925333a39.872 39.872 0 0 0-2.88-3.733334c-5.258667-6.037333-12.48-10.698667-21.685333-13.984a53.386667 53.386667 0 0 0 21.482666-17.322666 41.130667 41.130667 0 0 0 8.192-24.704c0-17.365333-5.866667-30.976-17.6-40.821334-11.722667-9.92-27.914667-14.901333-48.597333-14.901333-11.904 0-22.826667 2.282667-32.746667 6.848-9.856 4.565333-17.557333 10.922667-23.104 19.072a47.957333 47.957333 0 0 0-2.688 4.48 48.181333 48.181333 0 0 0-5.504 22.901333h38.805334c0-6.528 2.506667-11.808 7.52-15.84 5.013333-4.117333 11.232-6.176 18.666666-6.176 8.224 0 14.677333 2.197333 19.328 6.581334 4.746667 4.384 7.114667 10.517333 7.114667 18.389333 0 8.149333-2.368 14.677333-7.114667 19.605333-4.746667 4.917333-12.042667 7.381333-21.888 7.381334h-20.672v30.346666h20.544c21.482667 0 32.213333 9.749333 32.213334 29.269334 0 8.053333-2.634667 14.538667-7.914667 19.466666-5.194667 4.832-12.394667 7.253333-21.621333 7.253334-8.053333 0-14.848-2.336-20.405334-6.986667-5.461333-4.650667-8.192-10.656-8.192-17.994667h-38.794666c0 8.469333 1.546667 16.106667 4.64 22.912a50.24 50.24 0 0 0 13.888 17.909334c12.437333 10.293333 28.416 15.434667 47.925333 15.434666 20.853333 0 37.6-5.226667 50.218667-15.701333zM503.424 423.146667a22.826667 22.826667 0 0 0 1.066667-5.653334 8.768 8.768 0 0 1 3.306666-0.48c1.813333 0 2.890667 0.213333 3.413334 0.362667 0.064 0.362667 0.106667 0.906667 0.106666 1.706667a9.621333 9.621333 0 0 1-0.48 3.402666l-0.064 0.021334c-0.746667 0.245333-2.442667 0.64-5.536 0.64h-1.813333z" fill="#C28044" p-id="1445"></path></svg>